<svg xmlns="http://www.w3.org/2000/svg" xmlns:xlink="http://www.w3.org/1999/xlink" width="200" zoomAndPan="magnify" viewBox="0 0 150 149.999998" height="200" preserveAspectRatio="xMidYMid meet" version="1.0"><defs><clipPath id="e6d1e849d8"><path d="M 66.027344 88.082031 L 96 88.082031 L 96 139.339844 L 66.027344 139.339844 Z M 66.027344 88.082031 " clip-rule="nonzero"/></clipPath><clipPath id="83427e9418"><path d="M 80.128906 90.753906 C 80.367188 112.085938 78.820312 112.863281 77.75 112.863281 C 76.796875 112.863281 75.367188 111.753906 75.128906 110.863281 C 74.773438 109.753906 75.964844 107.53125 76.917969 106.53125 C 77.628906 105.640625 78.582031 104.976562 79.890625 104.640625 C 81.917969 104.308594 85.84375 104.308594 88.105469 105.640625 C 90.964844 107.308594 93.226562 111.863281 94.535156 115.417969 C 95.847656 118.972656 95.964844 123.972656 95.847656 127.082031 C 95.726562 129.082031 95.371094 130.636719 94.65625 132.195312 C 93.941406 133.636719 93.226562 134.972656 91.796875 136.082031 C 90.132812 137.414062 87.273438 138.636719 85.011719 139.082031 C 83.105469 139.414062 81.558594 139.191406 79.296875 138.75 C 75.84375 138.082031 68.226562 136.304688 66.796875 134.195312 C 66.082031 133.082031 66.320312 131.195312 67.035156 130.417969 C 67.75 129.640625 70.011719 129.195312 70.964844 129.527344 C 71.914062 129.859375 72.75 131.082031 72.988281 131.859375 C 73.105469 132.75 72.628906 134.082031 72.035156 134.75 C 71.320312 135.304688 69.890625 135.75 68.941406 135.527344 C 67.867188 135.195312 66.4375 133.527344 66.203125 132.636719 C 66.082031 131.972656 66.320312 131.195312 66.796875 130.75 C 67.390625 130.082031 68.34375 129.417969 69.535156 129.304688 C 71.914062 129.082031 76.679688 132.082031 79.773438 132.527344 C 82.273438 132.972656 85.132812 133.417969 86.796875 132.417969 C 88.34375 131.527344 89.058594 129.417969 89.535156 127.417969 C 90.011719 124.75 89.296875 120.640625 88.582031 117.75 C 87.867188 115.195312 87.035156 112.085938 85.367188 110.863281 C 84.296875 109.976562 82.035156 109.53125 81.082031 109.976562 C 80.367188 110.308594 80.488281 111.863281 79.890625 112.308594 C 79.296875 112.753906 78.464844 112.972656 77.75 112.863281 C 76.917969 112.640625 75.84375 112.085938 75.128906 110.863281 C 73.464844 107.640625 72.390625 93.753906 73.941406 90.421875 C 74.652344 89.089844 76.203125 88.089844 77.152344 88.089844 C 78.226562 88.089844 80.128906 90.753906 80.128906 90.753906 " clip-rule="nonzero"/></clipPath><clipPath id="50704f6376"><path d="M 0 6.707031 L 143.929688 6.707031 L 143.929688 137.957031 L 0 137.957031 Z M 0 6.707031 " clip-rule="nonzero"/></clipPath><clipPath id="59579c9a7a"><path d="M 22.300781 15.265625 L 51.546875 15.265625 L 51.546875 77.867188 L 22.300781 77.867188 Z M 22.300781 15.265625 " clip-rule="nonzero"/></clipPath><clipPath id="fdc3bea221"><path d="M 22.507812 55.09375 C 44.414062 17.109375 44.890625 15.726562 46.199219 15.40625 C 47.390625 15.191406 49.535156 15.726562 50.488281 17.003906 C 52.511719 19.660156 50.964844 28.386719 50.605469 35.515625 C 50.128906 45.410156 48.820312 65.945312 47.273438 70.523438 C 46.914062 71.796875 45.960938 72.011719 45.960938 72.757812 C 46.082031 73.609375 48.105469 74.457031 47.988281 75.203125 C 47.988281 76.054688 45.960938 77.757812 45.011719 77.757812 C 44.175781 77.652344 42.511719 75.84375 42.390625 74.882812 C 42.390625 74.246094 43.222656 73.289062 43.9375 72.96875 C 44.652344 72.648438 45.960938 72.542969 46.558594 72.96875 C 47.273438 73.5 48.105469 75.734375 47.628906 76.480469 C 47.273438 77.226562 45.367188 77.96875 44.414062 77.652344 C 43.105469 77.011719 42.273438 73.820312 41.675781 70.203125 C 40.367188 60.734375 42.273438 18.917969 45.367188 18.066406 C 46.199219 17.746094 47.988281 19.34375 48.226562 20.9375 C 48.9375 26.257812 32.390625 53.710938 27.628906 57.539062 C 26.320312 58.605469 25.007812 58.816406 24.058594 58.710938 C 23.460938 58.605469 22.867188 58.074219 22.507812 57.539062 C 22.269531 56.902344 22.507812 55.09375 22.507812 55.09375 " clip-rule="nonzero"/></clipPath><clipPath id="4eb23715e6"><path d="M 74.835938 81.90625 L 103.535156 81.90625 L 103.535156 93.566406 L 74.835938 93.566406 Z M 74.835938 81.90625 " clip-rule="nonzero"/></clipPath><clipPath id="a778968f6f"><path d="M 75.949219 88.921875 C 82.484375 85.257812 93.507812 81.976562 97.703125 81.976562 C 99.949219 81.976562 101.898438 82.363281 102.777344 83.230469 C 103.363281 83.808594 103.558594 84.871094 103.363281 85.546875 C 103.265625 86.222656 102.484375 87.183594 101.800781 87.378906 C 101.214844 87.667969 99.949219 87.667969 99.363281 87.183594 C 98.777344 86.703125 98.191406 85.0625 98.386719 84.195312 C 98.484375 83.519531 99.460938 82.75 100.144531 82.554688 C 100.824219 82.363281 101.996094 82.554688 102.484375 83.039062 C 103.070312 83.519531 103.558594 84.582031 103.460938 85.257812 C 103.363281 86.027344 102.875 86.894531 102.09375 87.28125 C 100.726562 88.054688 97.703125 86.992188 94.972656 87.378906 C 91.265625 87.859375 84.921875 89.886719 81.800781 91.238281 C 80.046875 92.007812 78.972656 93.648438 77.703125 93.550781 C 76.628906 93.550781 75.167969 92.394531 74.875 91.621094 C 74.679688 90.851562 75.949219 88.921875 75.949219 88.921875 " clip-rule="nonzero"/></clipPath><clipPath id="e82f42ed3d"><path d="M 102.371094 81.421875 L 135.589844 81.421875 L 135.589844 140.316406 L 102.371094 140.316406 Z M 102.371094 81.421875 " clip-rule="nonzero"/></clipPath><clipPath id="3eb3f05c38"><path d="M 104.355469 98.386719 C 105.222656 88.1875 105.839844 87.335938 106.832031 86.121094 C 108.070312 84.664062 110.296875 82.355469 112.277344 81.75 C 114.136719 81.265625 116.734375 81.386719 118.46875 82.355469 C 120.199219 83.207031 121.808594 85.515625 122.800781 87.578125 C 123.789062 89.519531 124.285156 91.585938 124.410156 94.136719 C 124.65625 97.292969 123.914062 101.300781 122.921875 105.304688 C 121.808594 110.164062 119.582031 115.871094 117.105469 120.96875 C 114.628906 126.191406 110.792969 134.207031 108.195312 136.269531 C 107.203125 137.121094 106.214844 137.363281 105.347656 137.242188 C 104.605469 137.242188 103.738281 136.753906 103.242188 136.148438 C 102.746094 135.542969 102.5 134.449219 102.625 133.234375 C 102.871094 131.050781 104.605469 125.21875 106.832031 124.128906 C 108.566406 123.277344 111.535156 124.25 113.640625 125.34375 C 116.238281 126.554688 118.46875 130.925781 120.820312 132.261719 C 122.675781 133.113281 124.53125 133.964844 126.019531 133.355469 C 128 132.628906 129.113281 127.648438 130.722656 126.921875 C 131.835938 126.433594 133.320312 126.800781 134.0625 127.40625 C 134.929688 128.011719 135.550781 129.347656 135.550781 130.320312 C 135.550781 131.292969 134.683594 132.628906 133.941406 133.234375 C 133.074219 133.71875 131.464844 133.839844 130.597656 133.476562 C 129.609375 133.113281 128.617188 131.898438 128.492188 130.925781 C 128.246094 129.957031 128.742188 128.378906 129.484375 127.769531 C 130.351562 127.042969 132.703125 126.675781 133.691406 127.164062 C 134.683594 127.648438 135.550781 128.742188 135.550781 129.957031 C 135.550781 131.898438 132.824219 135.90625 131.09375 137.605469 C 129.855469 138.820312 128.371094 139.546875 126.761719 139.914062 C 124.902344 140.277344 122.675781 140.398438 120.324219 139.546875 C 117.105469 138.335938 111.535156 131.171875 109.554688 131.777344 C 108.316406 132.140625 108.8125 136.148438 107.699219 136.753906 C 106.585938 137.363281 104.109375 136.878906 103.242188 136.148438 C 102.625 135.542969 102.375 134.570312 102.625 133.234375 C 103.117188 129.46875 110.667969 119.269531 113.019531 112.957031 C 114.878906 108.097656 115.992188 103 116.488281 99.234375 C 116.859375 96.683594 117.476562 94.378906 116.734375 92.800781 C 115.992188 91.34375 113.886719 89.644531 112.773438 89.886719 C 111.78125 90.007812 111.039062 92.191406 110.546875 93.769531 C 109.925781 95.59375 111.039062 99.113281 110.175781 100.328125 C 109.554688 101.058594 108.070312 101.421875 107.078125 101.179688 C 106.089844 100.933594 104.355469 98.386719 104.355469 98.386719 " clip-rule="nonzero"/></clipPath></defs><rect x="-15" width="180" fill="#ffffff" y="-15" height="179.999997" fill-opacity="1"/><rect x="-15" width="180" fill="#000000" y="-15" height="179.999997" fill-opacity="1"/><g clip-path="url(#e6d1e849d8)"><g clip-path="url(#83427e9418)"><path fill="#ffffff" d="M 61.4375 83.644531 L 100.609375 83.644531 L 100.609375 143.46875 L 61.4375 143.46875 Z M 61.4375 83.644531 " fill-opacity="1" fill-rule="nonzero"/></g></g><g clip-path="url(#50704f6376)"><path fill="#ffffff" d="M 117.566406 19.023438 L 125.664062 25.59375 L 98.667969 65.417969 L 70.132812 62.132812 L 23.277344 126.386719 L -2.238281 120.871094 L 2.257812 133.160156 L 27.132812 137.882812 L 74.375 72.808594 L 103.296875 76.914062 L 132.992188 30.929688 L 141.480469 37.910156 L 144.175781 6.707031 Z M 117.566406 19.023438 " fill-opacity="1" fill-rule="nonzero"/></g><g clip-path="url(#59579c9a7a)"><g clip-path="url(#fdc3bea221)"><path fill="#ffffff" d="M 17.746094 11.148438 L 55.367188 11.148438 L 55.367188 81.984375 L 17.746094 81.984375 Z M 17.746094 11.148438 " fill-opacity="1" fill-rule="nonzero"/></g></g><g clip-path="url(#4eb23715e6)"><g clip-path="url(#a778968f6f)"><path fill="#ffffff" d="M 70.972656 78.117188 L 107.398438 78.117188 L 107.398438 97.507812 L 70.972656 97.507812 Z M 70.972656 78.117188 " fill-opacity="1" fill-rule="nonzero"/></g></g><g clip-path="url(#e82f42ed3d)"><g clip-path="url(#3eb3f05c38)"><path fill="#ffffff" d="M 97.671875 76.894531 L 140.625 76.894531 L 140.625 144.84375 L 97.671875 144.84375 Z M 97.671875 76.894531 " fill-opacity="1" fill-rule="nonzero"/></g></g></svg>