<svg xmlns="http://www.w3.org/2000/svg" xmlns:xlink="http://www.w3.org/1999/xlink" width="200" zoomAndPan="magnify" viewBox="0 0 150 149.999998" height="200" preserveAspectRatio="xMidYMid meet" version="1.0"><defs><clipPath id="28937c8b06"><path d="M 67.5625 91.691406 L 97.550781 91.691406 L 97.550781 146.621094 L 67.5625 146.621094 Z M 67.5625 91.691406 " clip-rule="nonzero"/></clipPath><clipPath id="06a16f7fc0"><path d="M 81.664062 94.570312 C 81.902344 117.425781 80.351562 118.261719 79.28125 118.261719 C 78.328125 118.261719 76.902344 117.070312 76.664062 116.117188 C 76.304688 114.925781 77.496094 112.546875 78.449219 111.476562 C 79.164062 110.523438 80.113281 109.808594 81.425781 109.449219 C 83.449219 109.09375 87.378906 109.09375 89.640625 110.523438 C 92.496094 112.308594 94.757812 117.191406 96.066406 121 C 97.378906 124.808594 97.496094 130.167969 97.378906 133.5 C 97.257812 135.644531 96.902344 137.308594 96.1875 138.976562 C 95.472656 140.523438 94.757812 141.953125 93.332031 143.144531 C 91.664062 144.570312 88.804688 145.882812 86.542969 146.359375 C 84.640625 146.714844 83.089844 146.476562 80.828125 146 C 77.375 145.285156 69.757812 143.382812 68.328125 141.121094 C 67.613281 139.929688 67.851562 137.90625 68.566406 137.070312 C 69.28125 136.238281 71.542969 135.761719 72.496094 136.121094 C 73.449219 136.476562 74.28125 137.785156 74.519531 138.621094 C 74.636719 139.570312 74.164062 141 73.566406 141.714844 C 72.851562 142.308594 71.425781 142.785156 70.472656 142.546875 C 69.398438 142.191406 67.972656 140.40625 67.734375 139.453125 C 67.613281 138.738281 67.851562 137.90625 68.328125 137.429688 C 68.925781 136.714844 69.875 136 71.066406 135.882812 C 73.449219 135.644531 78.210938 138.859375 81.304688 139.332031 C 83.804688 139.808594 86.664062 140.285156 88.328125 139.214844 C 89.878906 138.261719 90.59375 136 91.066406 133.855469 C 91.542969 131 90.828125 126.59375 90.117188 123.5 C 89.402344 120.761719 88.566406 117.425781 86.902344 116.117188 C 85.828125 115.164062 83.566406 114.6875 82.613281 115.164062 C 81.902344 115.523438 82.019531 117.191406 81.425781 117.664062 C 80.828125 118.140625 79.996094 118.378906 79.28125 118.261719 C 78.449219 118.023438 77.375 117.425781 76.664062 116.117188 C 74.996094 112.664062 73.925781 97.785156 75.472656 94.210938 C 76.1875 92.785156 77.734375 91.710938 78.6875 91.710938 C 79.757812 91.710938 81.664062 94.570312 81.664062 94.570312 " clip-rule="nonzero"/></clipPath><clipPath id="8afb928eca"><path d="M 0 0 L 149.890625 0 L 149.890625 150 L 0 150 Z M 0 0 " clip-rule="nonzero"/></clipPath><clipPath id="0deb1cce5f"><path d="M 5 20 L 34.234375 20 L 34.234375 89.941406 L 5 89.941406 Z M 5 20 " clip-rule="nonzero"/></clipPath><clipPath id="5eebf9d7d8"><path d="M 5.195312 64.457031 C 27.101562 21.953125 27.578125 20.40625 28.886719 20.050781 C 30.078125 19.8125 32.222656 20.40625 33.171875 21.835938 C 35.195312 24.8125 33.648438 34.574219 33.292969 42.550781 C 32.816406 53.621094 31.507812 76.601562 29.957031 81.71875 C 29.601562 83.148438 28.648438 83.386719 28.648438 84.21875 C 28.769531 85.171875 30.792969 86.125 30.671875 86.957031 C 30.671875 87.910156 28.648438 89.816406 27.695312 89.816406 C 26.863281 89.695312 25.195312 87.671875 25.078125 86.601562 C 25.078125 85.886719 25.910156 84.816406 26.625 84.457031 C 27.339844 84.101562 28.648438 83.980469 29.246094 84.457031 C 29.957031 85.050781 30.792969 87.554688 30.316406 88.386719 C 29.957031 89.21875 28.054688 90.054688 27.101562 89.695312 C 25.792969 88.980469 24.957031 85.410156 24.363281 81.363281 C 23.054688 70.765625 24.957031 23.976562 28.054688 23.023438 C 28.886719 22.667969 30.671875 24.453125 30.910156 26.238281 C 31.625 32.191406 15.078125 62.910156 10.316406 67.195312 C 9.003906 68.386719 7.695312 68.625 6.742188 68.503906 C 6.148438 68.386719 5.550781 67.789062 5.195312 67.195312 C 4.957031 66.480469 5.195312 64.457031 5.195312 64.457031 " clip-rule="nonzero"/></clipPath><clipPath id="9c5c310179"><path d="M 74.835938 85.582031 L 103.535156 85.582031 L 103.535156 97.246094 L 74.835938 97.246094 Z M 74.835938 85.582031 " clip-rule="nonzero"/></clipPath><clipPath id="8bc5d0ce81"><path d="M 75.949219 92.597656 C 82.484375 88.933594 93.507812 85.652344 97.703125 85.652344 C 99.949219 85.652344 101.898438 86.039062 102.777344 86.90625 C 103.363281 87.488281 103.558594 88.546875 103.363281 89.222656 C 103.265625 89.898438 102.484375 90.863281 101.800781 91.054688 C 101.214844 91.34375 99.949219 91.34375 99.363281 90.863281 C 98.777344 90.378906 98.191406 88.742188 98.386719 87.871094 C 98.484375 87.199219 99.460938 86.425781 100.144531 86.234375 C 100.824219 86.039062 101.996094 86.234375 102.484375 86.714844 C 103.070312 87.199219 103.558594 88.257812 103.460938 88.933594 C 103.363281 89.707031 102.875 90.574219 102.09375 90.960938 C 100.726562 91.730469 97.703125 90.667969 94.972656 91.054688 C 91.265625 91.539062 84.921875 93.5625 81.800781 94.914062 C 80.046875 95.683594 78.972656 97.324219 77.703125 97.230469 C 76.628906 97.230469 75.167969 96.070312 74.875 95.300781 C 74.679688 94.527344 75.949219 92.597656 75.949219 92.597656 " clip-rule="nonzero"/></clipPath><clipPath id="8c9830fd37"><path d="M 109 84.503906 L 142.324219 84.503906 L 142.324219 143.855469 L 109 143.855469 Z M 109 84.503906 " clip-rule="nonzero"/></clipPath><clipPath id="b73d468fd4"><path d="M 110.84375 101.597656 C 111.71875 91.320312 112.339844 90.464844 113.339844 89.238281 C 114.585938 87.769531 116.832031 85.445312 118.828125 84.832031 C 120.699219 84.34375 123.320312 84.464844 125.066406 85.445312 C 126.8125 86.300781 128.433594 88.628906 129.429688 90.707031 C 130.429688 92.664062 130.929688 94.746094 131.054688 97.316406 C 131.304688 100.5 130.554688 104.535156 129.554688 108.574219 C 128.433594 113.46875 126.1875 119.222656 123.691406 124.363281 C 121.199219 129.625 117.332031 137.699219 114.710938 139.78125 C 113.714844 140.636719 112.714844 140.882812 111.839844 140.761719 C 111.09375 140.761719 110.21875 140.269531 109.722656 139.660156 C 109.222656 139.046875 108.972656 137.945312 109.097656 136.722656 C 109.347656 134.519531 111.09375 128.644531 113.339844 127.542969 C 115.085938 126.6875 118.078125 127.664062 120.199219 128.765625 C 122.820312 129.992188 125.066406 134.394531 127.4375 135.742188 C 129.308594 136.597656 131.179688 137.457031 132.675781 136.84375 C 134.671875 136.109375 135.792969 131.09375 137.414062 130.359375 C 138.539062 129.867188 140.035156 130.234375 140.785156 130.847656 C 141.65625 131.460938 142.28125 132.804688 142.28125 133.785156 C 142.28125 134.761719 141.40625 136.109375 140.660156 136.722656 C 139.785156 137.210938 138.164062 137.332031 137.289062 136.964844 C 136.292969 136.597656 135.296875 135.375 135.171875 134.394531 C 134.921875 133.417969 135.417969 131.828125 136.167969 131.214844 C 137.042969 130.480469 139.410156 130.113281 140.410156 130.601562 C 141.40625 131.09375 142.28125 132.195312 142.28125 133.417969 C 142.28125 135.375 139.535156 139.414062 137.789062 141.128906 C 136.542969 142.351562 135.046875 143.085938 133.421875 143.453125 C 131.550781 143.820312 129.308594 143.941406 126.9375 143.085938 C 123.691406 141.863281 118.078125 134.640625 116.082031 135.253906 C 114.835938 135.621094 115.335938 139.660156 114.210938 140.269531 C 113.089844 140.882812 110.59375 140.394531 109.722656 139.660156 C 109.097656 139.046875 108.847656 138.066406 109.097656 136.722656 C 109.597656 132.929688 117.207031 122.648438 119.578125 116.285156 C 121.449219 111.390625 122.570312 106.25 123.070312 102.457031 C 123.445312 99.886719 124.066406 97.5625 123.320312 95.96875 C 122.570312 94.5 120.449219 92.789062 119.328125 93.03125 C 118.328125 93.15625 117.582031 95.359375 117.082031 96.949219 C 116.457031 98.785156 117.582031 102.332031 116.707031 103.558594 C 116.082031 104.292969 114.585938 104.660156 113.589844 104.414062 C 112.589844 104.167969 110.84375 101.597656 110.84375 101.597656 " clip-rule="nonzero"/></clipPath></defs><rect x="-15" width="180" fill="#ffffff" y="-15" height="179.999997" fill-opacity="1"/><rect x="-15" width="180" fill="#ffffff" y="-15" height="179.999997" fill-opacity="1"/><g clip-path="url(#28937c8b06)"><g clip-path="url(#06a16f7fc0)"><path fill="#b32434" d="M 62.972656 86.949219 L 102.140625 86.949219 L 102.140625 151.058594 L 62.972656 151.058594 Z M 62.972656 86.949219 " fill-opacity="1" fill-rule="nonzero"/></g></g><g clip-path="url(#8afb928eca)"><path fill="#9ed500" d="M 119.164062 14.15625 L 128.488281 21.703125 L 97.40625 67.472656 L 64.550781 63.695312 L 10.605469 137.535156 L -18.773438 131.199219 L -13.59375 145.320312 L 15.046875 150.746094 L 69.4375 75.960938 L 102.734375 80.679688 L 136.921875 27.839844 L 146.691406 35.859375 L 149.796875 0 Z M 119.164062 14.15625 " fill-opacity="1" fill-rule="nonzero"/></g><g clip-path="url(#0deb1cce5f)"><g clip-path="url(#5eebf9d7d8)"><path fill="#b32434" d="M 0.433594 15.285156 L 38.054688 15.285156 L 38.054688 94.644531 L 0.433594 94.644531 Z M 0.433594 15.285156 " fill-opacity="1" fill-rule="nonzero"/></g></g><g clip-path="url(#9c5c310179)"><g clip-path="url(#8bc5d0ce81)"><path fill="#b32434" d="M 70.972656 81.796875 L 107.398438 81.796875 L 107.398438 101.183594 L 70.972656 101.183594 Z M 70.972656 81.796875 " fill-opacity="1" fill-rule="nonzero"/></g></g><g clip-path="url(#8c9830fd37)"><g clip-path="url(#b73d468fd4)"><path fill="#b32434" d="M 104.105469 79.9375 L 147.394531 79.9375 L 147.394531 148.421875 L 104.105469 148.421875 Z M 104.105469 79.9375 " fill-opacity="1" fill-rule="nonzero"/></g></g></svg>